<svg width="170" height="33" viewBox="0 0 170 33" fill="none" xmlns="http://www.w3.org/2000/svg">
<g clip-path="url(#clip0_58_2)">
<path d="M8.02977 25.7235C10.2754 25.7235 12.1358 25.2285 13.6096 24.2385C15.0834 23.2471 15.821 21.8061 15.821 19.9155C15.7072 17.3649 13.8139 15.4522 10.1397 14.1776L8.16549 13.3567C7.73501 13.2192 7.42791 13.0845 7.24695 12.947C7.16332 12.8903 7.09484 12.8139 7.04751 12.7245C7.00018 12.6351 6.97545 12.5354 6.97549 12.4341C6.97549 11.8649 7.34977 11.5816 8.09832 11.5816C9.02783 11.5816 9.7188 12.0587 10.1726 13.0157L15.2424 11.5802C14.0182 8.52775 11.6587 7.00287 8.16549 7.00287C6.07888 7.00287 4.34323 7.55012 2.95992 8.64325C1.57662 9.735 0.884275 11.1595 0.884275 12.9113C0.884275 13.4585 0.963792 13.9645 1.12282 14.432C1.28186 14.8995 1.52041 15.3093 1.8371 15.6613C2.15516 16.0146 2.46089 16.3212 2.75565 16.5839C3.05041 16.8451 3.42468 17.0912 3.87984 17.3181C4.33226 17.5464 4.67775 17.7114 4.9163 17.8131C5.15485 17.9163 5.47839 18.0359 5.88557 18.172L6.46412 18.3783L8.50687 19.129C9.00453 19.3119 9.32945 19.4645 9.47614 19.5896C9.54782 19.65 9.60483 19.7259 9.64284 19.8117C9.68085 19.8975 9.69886 19.9908 9.6955 20.0846C9.6955 20.6772 9.14163 20.9742 8.02977 20.9742C6.39694 20.9742 5.42081 20.2455 5.10412 18.788L0 19.9499C0.634759 23.7999 3.31226 25.7235 8.02977 25.7235ZM23.9824 25.7235C26.228 25.7235 27.8828 24.8573 28.9494 23.1275V25.3481H35.9578V7.37825H28.9494V17.2178C28.9494 19.2445 28.2571 20.2565 26.8737 20.2565C25.4671 20.2565 24.7638 19.2445 24.7638 17.2178V7.37825H17.7554V17.9011C17.7554 23.1165 19.8311 25.7235 23.9824 25.7235ZM46.0591 25.3481V15.51C46.0591 13.4819 46.7501 12.4685 48.1334 12.4685C49.54 12.4685 50.2447 13.4819 50.2447 15.51V25.3481H57.2517V14.8266C57.2517 9.61125 55.1774 7.00287 51.0261 7.00287C48.7805 7.00287 47.1243 7.86912 46.0591 9.59888V7.37825H39.0493V25.3481H46.0591ZM67.1487 25.3481V15.51C67.1487 13.4819 67.8397 12.4685 69.2244 12.4685C70.6296 12.4685 71.3329 13.4819 71.3329 15.51V25.3481H78.3427V14.8266C78.3427 9.61125 76.267 7.00287 72.1157 7.00287C69.8701 7.00287 68.214 7.86912 67.1487 9.59888V7.37825H60.139V25.3481H67.1487ZM89.0555 33L100.419 7.37825H93.1026L89.6312 16.5688L86.5356 7.37825H78.8801L86.3313 23.606L82.1814 33H89.0555ZM107.797 25.7235C110.042 25.7235 111.903 25.2285 113.376 24.2385C114.852 23.2471 115.589 21.8061 115.589 19.9155C115.475 17.3649 113.581 15.4522 109.907 14.1776L107.932 13.3567C107.502 13.2192 107.196 13.0845 107.014 12.947C106.93 12.8903 106.862 12.8139 106.814 12.7245C106.767 12.6351 106.742 12.5354 106.742 12.4341C106.742 11.8649 107.117 11.5816 107.865 11.5816C108.795 11.5816 109.487 12.0587 109.941 13.0157L115.011 11.5802C113.785 8.52775 111.427 7.00287 107.934 7.00287C105.847 7.00287 104.111 7.55012 102.728 8.64325C101.343 9.73637 100.652 11.1595 100.652 12.9126C100.652 13.4599 100.732 13.9659 100.89 14.4334C101.049 14.9009 101.287 15.3106 101.605 15.6626C101.922 16.016 102.229 16.3226 102.524 16.5853C102.819 16.8465 103.193 17.0926 103.647 17.3195C104.099 17.5478 104.446 17.7128 104.685 17.8145C104.922 17.9176 105.247 18.0373 105.654 18.1734L106.232 18.3796L108.274 19.1304C108.773 19.3132 109.096 19.4659 109.243 19.591C109.315 19.6512 109.372 19.7271 109.41 19.8129C109.449 19.8987 109.467 19.9921 109.464 20.086C109.464 20.6786 108.908 20.9756 107.797 20.9756C106.165 20.9756 105.189 20.2469 104.871 18.7894L99.7668 19.9499C100.403 23.7999 103.079 25.7235 107.797 25.7235ZM121.232 6.28513C122.48 6.28513 123.443 5.9895 124.125 5.39687C124.803 4.80562 125.145 4.0535 125.145 3.14188C125.145 2.20963 124.816 1.45063 124.158 0.87175C123.5 0.28875 122.525 0 121.232 0C119.939 0 118.963 0.290125 118.305 0.87175C117.647 1.452 117.318 2.20963 117.318 3.14325C117.318 4.0535 117.659 4.80562 118.339 5.39825C119.021 5.9895 119.985 6.28513 121.232 6.28513ZM124.736 25.3481V7.37825H117.725V25.3481H124.736ZM135.348 25.7235C137.729 25.7235 139.429 24.8573 140.45 23.1275V25.3481H147.459V0.649H140.45V9.63325C139.429 7.88013 137.729 7.00287 135.346 7.00287C132.943 7.00287 130.94 7.88562 129.341 9.65112C127.743 11.4152 126.942 13.6524 126.942 16.3639C126.942 19.0726 127.743 21.3111 129.341 23.0766C130.94 24.8408 132.944 25.7235 135.348 25.7235ZM137.253 20.361C136.254 20.361 135.455 19.9842 134.854 19.2335C134.252 18.4814 133.952 17.5244 133.952 16.3639C133.952 15.202 134.247 14.2464 134.836 13.4943C135.449 12.7421 136.254 12.3668 137.252 12.3668C138.25 12.3668 139.049 12.7421 139.651 13.4943C140.252 14.245 140.552 15.202 140.552 16.3639C140.552 17.5244 140.252 18.4814 139.651 19.2335C139.049 19.9842 138.251 20.361 137.253 20.361ZM160.146 25.7235C163.706 25.7235 166.485 24.6868 168.481 22.616L165.588 18.7206C164.16 19.8825 162.549 20.4627 160.757 20.4627C159.397 20.4627 158.291 20.1547 157.439 19.5415C156.589 18.9255 156.164 18.3329 156.164 17.7636H169.331C169.445 17.3539 169.501 16.819 169.501 16.159C169.501 13.3348 168.577 11.1031 166.729 9.46275C164.88 7.82237 162.516 7.00287 159.634 7.00287C156.55 7.00287 154.112 7.9255 152.32 9.77075C150.528 11.6146 149.632 13.8352 149.632 16.4312C149.632 19.096 150.578 21.3111 152.472 23.0766C154.367 24.8408 156.924 25.7235 160.146 25.7235ZM163.173 14.5186H156.164C156.21 13.6757 156.573 13.0336 157.253 12.5881C157.933 12.144 158.739 11.9226 159.669 11.9226C160.598 11.9226 161.404 12.1495 162.084 12.606C162.766 13.0611 163.128 13.6991 163.173 14.5186Z" fill="#2C7365"/>
</g>
<defs>
<clipPath id="clip0_58_2">
<rect width="170" height="33" fill="white"/>
</clipPath>
</defs>
</svg>
